<?xml version="1.0" standalone="no"?>
<!DOCTYPE svg PUBLIC "-//W3C//DTD SVG 20010904//EN"
 "http://www.w3.org/TR/2001/REC-SVG-20010904/DTD/svg10.dtd">
<svg version="1.0" xmlns="http://www.w3.org/2000/svg"
 width="334.000000pt" height="334.000000pt" viewBox="0 0 334.000000 334.000000"
 preserveAspectRatio="xMidYMid meet">
<metadata>
Created by potrace 1.11, written by Peter Selinger 2001-2013
</metadata>
<g transform="translate(0.000000,334.000000) scale(0.100000,-0.100000)"
fill="#000000" stroke="none">
<path d="M1145 2362 c-55 -87 -295 -465 -534 -839 -238 -375 -433 -685 -432
-690 1 -4 138 -9 306 -9 l305 -1 227 354 c124 194 230 352 235 351 4 -2 92
-138 196 -303 104 -165 204 -323 222 -351 l34 -51 313 0 c172 0 313 1 313 3 0
2 -60 97 -133 211 -233 364 -458 717 -592 931 -72 114 -154 243 -182 287 -28
44 -78 122 -110 173 -31 50 -60 92 -63 92 -3 0 -50 -71 -105 -158z"/>
<path d="M2014 2398 c-239 -371 -233 -361 -222 -382 6 -12 104 -167 218 -346
114 -179 262 -413 330 -520 183 -289 203 -320 215 -321 34 -4 615 -3 614 1 0
3 -37 62 -82 133 -105 163 -370 578 -422 661 -22 35 -148 233 -280 440 -132
207 -244 384 -250 393 -41 72 -35 74 -121 -59z"/>
<path d="M1225 1189 c-156 -264 -206 -352 -200 -357 7 -7 455 -10 455 -4 0 8
-130 238 -170 302 -6 8 -21 35 -34 59 l-24 44 -27 -44z"/>
</g>
</svg>
