<?xml version="1.0" encoding="UTF-8" standalone="no"?>
<svg width="36px" height="36px" viewBox="0 0 36 36" version="1.1" xmlns="http://www.w3.org/2000/svg" xmlns:xlink="http://www.w3.org/1999/xlink">
    <!-- Generator: Sketch 3.8.3 (29802) - http://www.bohemiancoding.com/sketch -->
    <title>Codepen-color</title>
    <desc>Created with Sketch.</desc>
    <defs></defs>
    <g id="TCAN" stroke="none" stroke-width="1" fill="none" fill-rule="evenodd">
        <g id="Desktop-Copy-3" transform="translate(-346.000000, -1860.000000)" fill="#CA4E4E">
            <g id="Image-Section" transform="translate(-3.000000, 775.000000)">
                <g id="About-Section" transform="translate(5.000000, 600.000000)">
                    <g id="About-Info" transform="translate(228.000000, 254.000000)">
                        <g id="Social" transform="translate(1.000000, 231.000000)">
                            <path d="M150.9865,12.31425 C150.983125,12.290625 150.9775,12.26925 150.974125,12.24675 C150.96625,12.202875 150.958375,12.159 150.947125,12.117375 C150.940375,12.0915 150.93025,12.06675 150.922375,12.042 C150.91,12.00375 150.897625,11.966625 150.883,11.9295 C150.872875,11.903625 150.8605,11.87775 150.848125,11.854125 C150.832375,11.818125 150.8155,11.784375 150.79525,11.75175 C150.78175,11.727 150.766,11.703375 150.751375,11.67975 C150.731125,11.647125 150.70975,11.615625 150.686125,11.58525 C150.66925,11.56275 150.65125,11.54025 150.63325,11.518875 C150.6085,11.489625 150.582625,11.4615 150.555625,11.4345 C150.535375,11.41425 150.51625,11.392875 150.494875,11.374875 C150.465625,11.349 150.436375,11.32425 150.407125,11.300625 C150.3835,11.282625 150.361,11.264625 150.337375,11.24775 C150.328375,11.242125 150.3205,11.23425 150.3115,11.228625 L133.858375,0.259875 C133.338625,-0.086625 132.6625,-0.086625 132.141625,0.259875 L115.689625,11.228625 C115.680625,11.23425 115.67275,11.242125 115.66375,11.24775 C115.639,11.264625 115.6165,11.282625 115.594,11.300625 C115.563625,11.32425 115.534375,11.349 115.50625,11.374875 C115.484875,11.392875 115.464625,11.41425 115.444375,11.4345 C115.417375,11.4615 115.3915,11.489625 115.367875,11.518875 C115.34875,11.54025 115.33075,11.56275 115.313875,11.58525 C115.291375,11.615625 115.27,11.647125 115.24975,11.67975 C115.234,11.703375 115.219375,11.727 115.20475,11.75175 C115.185625,11.784375 115.16875,11.818125 115.151875,11.854125 C115.140625,11.87775 115.12825,11.903625 115.118125,11.9295 C115.102375,11.966625 115.09,12.00375 115.077625,12.042 C115.06975,12.06675 115.06075,12.0915 115.054,12.117375 C115.04275,12.159 115.034875,12.202875 115.027,12.24675 C115.0225,12.26925 115.016875,12.290625 115.014625,12.31425 C115.005625,12.3795 115,12.447 115,12.515625 L115,23.484375 C115,23.551875 115.005625,23.619375 115.014625,23.686875 C115.016875,23.70825 115.0225,23.73075 115.027,23.75325 C115.034875,23.797125 115.04275,23.839875 115.054,23.882625 C115.06075,23.9085 115.06975,23.93325 115.077625,23.958 C115.09,23.995125 115.102375,24.033375 115.118125,24.071625 C115.12825,24.096375 115.140625,24.121125 115.151875,24.145875 C115.16875,24.18075 115.185625,24.2145 115.20475,24.249375 C115.219375,24.273 115.234,24.296625 115.24975,24.32025 C115.27,24.352875 115.291375,24.38325 115.313875,24.413625 C115.33075,24.43725 115.34875,24.45975 115.367875,24.481125 C115.3915,24.50925 115.417375,24.5385 115.444375,24.564375 C115.464625,24.58575 115.484875,24.606 115.50625,24.625125 C115.534375,24.651 115.563625,24.67575 115.594,24.699375 C115.6165,24.717375 115.639,24.735375 115.66375,24.75225 C115.67275,24.757875 115.680625,24.76575 115.689625,24.771375 L132.141625,35.740125 C132.4015,35.913375 132.70075,36 133,36 C133.29925,36 133.5985,35.913375 133.858375,35.740125 L150.3115,24.771375 C150.3205,24.76575 150.328375,24.757875 150.337375,24.75225 C150.361,24.735375 150.3835,24.717375 150.407125,24.699375 C150.436375,24.67575 150.465625,24.651 150.494875,24.625125 C150.51625,24.606 150.535375,24.58575 150.555625,24.564375 C150.582625,24.5385 150.6085,24.50925 150.63325,24.481125 C150.65125,24.45975 150.66925,24.43725 150.686125,24.413625 C150.70975,24.38325 150.731125,24.352875 150.751375,24.32025 C150.766,24.296625 150.78175,24.273 150.79525,24.249375 C150.8155,24.2145 150.832375,24.18075 150.848125,24.145875 C150.8605,24.121125 150.872875,24.096375 150.883,24.071625 C150.897625,24.033375 150.91,23.995125 150.922375,23.958 C150.93025,23.93325 150.940375,23.9085 150.947125,23.882625 C150.958375,23.839875 150.96625,23.797125 150.974125,23.75325 C150.9775,23.73075 150.983125,23.70825 150.9865,23.686875 C150.9955,23.619375 151,23.551875 151,23.484375 L151,12.515625 C151,12.447 150.9955,12.3795 150.9865,12.31425 L150.9865,12.31425 L150.9865,12.31425 Z M134.546875,4.438125 L146.667625,12.517875 L141.254125,16.13925 L134.546875,11.65275 L134.546875,4.438125 L134.546875,4.438125 Z M131.453125,4.438125 L131.453125,11.65275 L124.747,16.13925 L119.332375,12.517875 L131.453125,4.438125 L131.453125,4.438125 Z M118.09375,15.411375 L121.964875,18 L118.09375,20.588625 L118.09375,15.411375 L118.09375,15.411375 Z M131.453125,31.561875 L119.332375,23.482125 L124.747,19.861875 L131.453125,24.34725 L131.453125,31.561875 L131.453125,31.561875 Z M133,21.659625 L127.529125,18 L133,14.340375 L138.472,18 L133,21.659625 L133,21.659625 Z M134.546875,31.561875 L134.546875,24.34725 L141.254125,19.861875 L146.667625,23.482125 L134.546875,31.561875 L134.546875,31.561875 Z M147.90625,20.588625 L144.03625,18 L147.90625,15.411375 L147.90625,20.588625 L147.90625,20.588625 Z" id="Codepen"></path>
                        </g>
                    </g>
                </g>
            </g>
        </g>
    </g>
</svg>