<?xml version="1.0" encoding="UTF-8" standalone="no"?>
<svg width="35px" height="35px" viewBox="0 0 35 35" version="1.1" xmlns="http://www.w3.org/2000/svg" xmlns:xlink="http://www.w3.org/1999/xlink">
    <!-- Generator: Sketch 3.8.3 (29802) - http://www.bohemiancoding.com/sketch -->
    <title>Dribbble-color</title>
    <desc>Created with Sketch.</desc>
    <defs></defs>
    <g id="TCAN" stroke="none" stroke-width="1" fill="none" fill-rule="evenodd">
        <g id="Desktop-Copy-3" transform="translate(-288.000000, -1861.000000)" fill="#CA4E4E">
            <g id="Image-Section" transform="translate(-3.000000, 775.000000)">
                <g id="About-Section" transform="translate(5.000000, 600.000000)">
                    <g id="About-Info" transform="translate(228.000000, 254.000000)">
                        <g id="Social" transform="translate(1.000000, 231.000000)">
                            <path d="M82.4829776,30.4676936 C82.3328629,29.5792816 81.5478038,25.2548651 79.6145705,19.9467047 C84.3715823,19.186078 88.4916211,20.4902993 88.7959076,20.5896878 C88.1406774,24.6950438 85.7895572,28.2344935 82.4829776,30.4676936 L82.4829776,30.4676936 L82.4829776,30.4676936 Z M74.2510143,32.9828326 C70.6847769,32.9828326 67.4147116,31.7151214 64.864791,29.60565 C65.0595343,29.7638603 65.1954489,29.8632489 65.1954489,29.8632489 C65.1954489,29.8632489 68.0192274,23.7052149 76.7563062,20.6606796 C76.7887635,20.6485096 76.8232493,20.6403963 76.8557065,20.6302546 C78.9289116,26.0154918 79.7829423,30.5265154 80.0020286,31.81451 C78.2351385,32.564995 76.2897336,32.9828326 74.2510143,32.9828326 L74.2510143,32.9828326 L74.2510143,32.9828326 Z M59.5174634,18.2489858 C59.5174634,18.0928038 59.5255777,17.9386501 59.5296349,17.7844964 C59.7913212,17.7905815 67.0698536,17.9548768 74.654701,15.6851667 C75.0766449,16.5107002 75.4803316,17.3524605 75.8495325,18.190164 C75.6547892,18.2429008 75.4620744,18.3017226 75.2693597,18.3666294 C67.3193685,20.9345053 63.2865585,28.0864248 63.2865585,28.0864248 C63.2865585,28.0864248 63.2926442,28.0925098 63.2926442,28.0945382 C60.9455812,25.4840673 59.5174634,22.0338644 59.5174634,18.2489858 L59.5174634,18.2489858 L59.5174634,18.2489858 Z M67.9644558,4.92889059 C68.1612277,5.19054618 70.8856059,8.88414957 73.4355265,13.4154565 C66.3618804,15.2957258 60.2213794,15.2206773 59.8339213,15.2145923 C60.7893808,10.6508319 63.8545599,6.86798166 67.9644558,4.92889059 L67.9644558,4.92889059 L67.9644558,4.92889059 Z M70.7212912,3.94717502 C70.7212912,3.94920336 70.7192627,3.9512317 70.7192627,3.9512317 C70.7192627,3.9512317 70.7010055,3.95528838 70.674634,3.95934505 C70.6908626,3.95528838 70.7050626,3.95326004 70.7212912,3.94717502 L70.7212912,3.94717502 L70.7212912,3.94717502 Z M83.980067,7.1965724 C83.9435527,7.25133753 81.8460046,10.4459698 76.2836479,12.5290728 C73.7661845,7.90243401 70.9992062,4.22708566 70.7780914,3.935005 C71.8917799,3.66523605 73.0541542,3.51919572 74.2510143,3.51919572 C77.9795378,3.51919572 81.3855177,4.91063555 83.980067,7.1965724 L83.980067,7.1965724 L83.980067,7.1965724 Z M88.9784794,18.1029455 C88.7654789,18.0562937 83.779238,16.983303 78.7179397,17.6202011 C78.6124537,17.3686872 78.5089963,17.1151449 78.3994532,16.8616027 C78.0931381,16.1395144 77.7624802,15.4255394 77.4196507,14.7237345 C83.237608,12.3485508 85.5988711,8.93485802 85.6272711,8.89429126 C87.692362,11.4033453 88.9439936,14.6081192 88.9784794,18.1029455 L88.9784794,18.1029455 L88.9784794,18.1029455 Z M91.1510848,14.7784996 C90.9238843,13.6710271 90.5830834,12.577753 90.1428823,11.5351873 C89.7128241,10.5129049 89.1752514,9.52713269 88.5524784,8.60626727 C87.9378197,7.6935152 87.227818,6.83349991 86.4488446,6.05461814 C85.6678427,5.27370804 84.8097548,4.5658181 83.8948668,3.94920336 C82.9738931,3.32447528 81.9880049,2.7910224 80.9656024,2.35695808 C79.9229141,1.91883709 78.83154,1.57807631 77.7239372,1.3529308 C76.5879344,1.11967194 75.4194743,1 74.2510143,1 C73.0805257,1 71.9120656,1.11967194 70.7760628,1.3529308 C69.66846,1.57807631 68.5770859,1.91883709 67.5343976,2.35695808 C66.5119951,2.7910224 65.5261069,3.32447528 64.6031046,3.94920336 C63.6902452,4.5658181 62.8321573,5.27370804 62.0511554,6.05461814 C61.272182,6.83349991 60.5642089,7.6935152 59.9475216,8.60626727 C59.3247486,9.52713269 58.7871759,10.5129049 58.3571177,11.5351873 C57.914888,12.577753 57.5761157,13.6710271 57.3489152,14.7784996 C57.1176574,15.9123405 57,17.0806632 57,18.2489858 C57,19.4213652 57.1176574,20.5896878 57.3489152,21.7255571 C57.5761157,22.8330296 57.914888,23.9242754 58.3571177,24.9648127 C58.7871759,25.9870951 59.3247486,26.976924 59.9475216,27.8977894 C60.5642089,28.8105415 61.272182,29.6665001 62.0511554,30.4494385 C62.8321573,31.2283203 63.6902452,31.9341819 64.6031046,32.552825 C65.5261069,33.1755247 66.5119951,33.7110059 67.5343976,34.1430419 C68.5770859,34.5852196 69.66846,34.9219237 70.7760628,35.1470692 C71.9120656,35.3823564 73.0805257,35.5 74.2510143,35.5 C75.4194743,35.5 76.5879344,35.3823564 77.7239372,35.1470692 C78.83154,34.9219237 79.9229141,34.5852196 80.9656024,34.1430419 C81.9880049,33.7110059 82.9738931,33.1755247 83.8948668,32.552825 C84.8097548,31.9341819 85.6678427,31.2283203 86.4488446,30.4494385 C87.227818,29.6665001 87.9378197,28.8105415 88.5524784,27.8977894 C89.1752514,26.976924 89.7128241,25.9870951 90.1428823,24.9648127 C90.5830834,23.9242754 90.9238843,22.8330296 91.1510848,21.7255571 C91.3823426,20.5896878 91.5,19.4213652 91.5,18.2489858 C91.5,17.0806632 91.3823426,15.9123405 91.1510848,14.7784996 L91.1510848,14.7784996 L91.1510848,14.7784996 Z" id="Dribbble"></path>
                        </g>
                    </g>
                </g>
            </g>
        </g>
    </g>
</svg>