<?xml version="1.0" encoding="UTF-8" standalone="no"?>
<svg width="33px" height="30px" viewBox="0 0 33 30" version="1.1" xmlns="http://www.w3.org/2000/svg" xmlns:xlink="http://www.w3.org/1999/xlink">
    <!-- Generator: Sketch 3.8.3 (29802) - http://www.bohemiancoding.com/sketch -->
    <title>LinkedIn-color</title>
    <desc>Created with Sketch.</desc>
    <defs></defs>
    <g id="TCAN" stroke="none" stroke-width="1" fill="none" fill-rule="evenodd">
        <g id="Desktop-Copy-3" transform="translate(-231.000000, -1863.000000)" fill="#CA4E4E">
            <g id="Image-Section" transform="translate(-3.000000, 775.000000)">
                <g id="About-Section" transform="translate(5.000000, 600.000000)">
                    <g id="About-Info" transform="translate(228.000000, 254.000000)">
                        <g id="Social" transform="translate(1.000000, 231.000000)">
                            <path d="M33,33 L25.7065499,33 L25.7065499,22.4538003 C25.7065499,19.693347 24.565675,17.8088621 22.0569144,17.8088621 C20.1379939,17.8088621 19.070849,19.0805532 18.5741416,20.3061407 C18.3878763,20.746046 18.4169802,21.3588397 18.4169802,21.9716335 L18.4169802,33 L11.1914393,33 C11.1914393,33 11.284572,14.318435 11.1914393,12.6202856 L18.4169802,12.6202856 L18.4169802,15.8187232 C18.8438382,14.4202472 21.1527516,12.4243453 24.8373119,12.4243453 C29.4085724,12.4243453 33,15.3557662 33,21.6681181 L33,33 L33,33 Z M3.88440734,10.0711404 L3.83784102,10.0711404 C1.50952493,10.0711404 0,8.51322277 0,6.53845169 C0,4.52526093 1.55415099,3 3.9290334,3 C6.30197554,3 7.76105362,4.52141897 7.80761994,6.53268874 C7.80761994,8.50745982 6.30197554,10.0711404 3.88440734,10.0711404 L3.88440734,10.0711404 L3.88440734,10.0711404 Z M0.832373001,12.6202856 L7.26434619,12.6202856 L7.26434619,33 L0.832373001,33 L0.832373001,12.6202856 L0.832373001,12.6202856 Z" id="LinkedIn"></path>
                        </g>
                    </g>
                </g>
            </g>
        </g>
    </g>
</svg>