<?xml version="1.0" encoding="UTF-8" standalone="no"?>
<svg width="36px" height="36px" viewBox="0 0 36 36" version="1.1" xmlns="http://www.w3.org/2000/svg" xmlns:xlink="http://www.w3.org/1999/xlink">
    <!-- Generator: Sketch 3.8.3 (29802) - http://www.bohemiancoding.com/sketch -->
    <title>Spotify-color</title>
    <desc>Created with Sketch.</desc>
    <defs></defs>
    <g id="TCAN" stroke="none" stroke-width="1" fill="none" fill-rule="evenodd">
        <g id="Desktop-Copy-3" transform="translate(-467.000000, -1860.000000)" fill="#CA4E4E">
            <g id="Image-Section" transform="translate(-3.000000, 775.000000)">
                <g id="About-Section" transform="translate(5.000000, 600.000000)">
                    <g id="About-Info" transform="translate(228.000000, 254.000000)">
                        <g id="Social" transform="translate(1.000000, 231.000000)">
                            <path d="M264.62,16.02 C258.86,12.6 249.23,12.24 243.74,13.95 C242.84,14.22 241.94,13.68 241.67,12.87 C241.4,11.97 241.94,11.07 242.75,10.8 C249.14,8.91 259.67,9.27 266.33,13.23 C267.14,13.68 267.41,14.76 266.96,15.57 C266.51,16.2 265.43,16.47 264.62,16.02 M264.44,21.06 C263.99,21.69 263.18,21.96 262.55,21.51 C257.69,18.54 250.31,17.64 244.64,19.44 C243.92,19.62 243.11,19.26 242.93,18.54 C242.75,17.82 243.11,17.01 243.83,16.83 C250.4,14.85 258.5,15.84 264.08,19.26 C264.62,19.53 264.89,20.43 264.44,21.06 M262.28,26.01 C261.92,26.55 261.29,26.73 260.75,26.37 C256.52,23.76 251.21,23.22 244.91,24.66 C244.28,24.84 243.74,24.39 243.56,23.85 C243.38,23.22 243.83,22.68 244.37,22.5 C251.21,20.97 257.15,21.6 261.83,24.48 C262.46,24.75 262.55,25.47 262.28,26.01 M254,0 C244.1,0 236,8.1 236,18 C236,27.9 244.1,36 254,36 C263.9,36 272,27.9 272,18 C272,8.1 263.99,0 254,0" id="Spotify"></path>
                        </g>
                    </g>
                </g>
            </g>
        </g>
    </g>
</svg>