<?xml version="1.0" encoding="UTF-8" standalone="no"?>
<svg width="37px" height="30px" viewBox="0 0 37 30" version="1.1" xmlns="http://www.w3.org/2000/svg" xmlns:xlink="http://www.w3.org/1999/xlink">
    <!-- Generator: Sketch 3.8.3 (29802) - http://www.bohemiancoding.com/sketch -->
    <title>Twitter-color</title>
    <desc>Created with Sketch.</desc>
    <defs></defs>
    <g id="TCAN" stroke="none" stroke-width="1" fill="none" fill-rule="evenodd">
        <g id="Desktop-Copy-3" transform="translate(-406.000000, -1864.000000)" fill="#CA4E4E">
            <g id="Image-Section" transform="translate(-3.000000, 775.000000)">
                <g id="About-Section" transform="translate(5.000000, 600.000000)">
                    <g id="About-Info" transform="translate(228.000000, 254.000000)">
                        <g id="Social" transform="translate(1.000000, 231.000000)">
                            <path d="M211.25,7.55146262 C209.927232,8.15384615 208.503038,8.56121343 207.009113,8.7432286 C208.534733,7.8071506 209.705362,6.32286024 210.256867,4.55471289 C208.828447,5.42145179 207.25,6.05200433 205.563788,6.3900325 C204.219889,4.91874323 202.299128,4 200.173402,4 C196.097332,4 192.790412,7.39111593 192.790412,11.5731311 C192.790412,12.1668472 192.853803,12.7432286 192.980586,13.2979415 C186.842182,12.9815818 181.401083,9.96966414 177.756075,5.38244854 C177.120048,6.50487541 176.756603,7.8071506 176.756603,9.19393283 C176.756603,11.8201517 178.060354,14.1386782 180.042393,15.4972914 C178.83373,15.460455 177.692684,15.1159263 176.695325,14.552546 L176.695325,14.6457205 C176.695325,18.3163597 179.241548,21.3781148 182.622425,22.071506 C182.003302,22.2491874 181.35037,22.3380282 180.676307,22.3380282 C180.200872,22.3380282 179.736001,22.2925244 179.285922,22.2036836 C180.226228,25.2112676 182.95206,27.4019502 186.185024,27.460455 C183.657818,29.4929577 180.471342,30.7042254 177.012282,30.7042254 C176.416403,30.7042254 175.826862,30.6695558 175.25,30.6002167 C178.518885,32.7453954 182.402668,34 186.571712,34 C200.158611,34 207.585975,22.4615385 207.585975,12.4528711 C207.585975,12.1235103 207.579635,11.7941495 207.566957,11.4712893 C209.010169,10.4030336 210.263207,9.07042254 211.25,7.55146262" id="Twitter"></path>
                        </g>
                    </g>
                </g>
            </g>
        </g>
    </g>
</svg>